<?xml version="1.0" standalone="no"?>
<!DOCTYPE svg PUBLIC "-//W3C//DTD SVG 20010904//EN"
 "http://www.w3.org/TR/2001/REC-SVG-20010904/DTD/svg10.dtd">
<svg version="1.0" xmlns="http://www.w3.org/2000/svg"
 width="154.000000pt" height="154.000000pt" viewBox="0 0 154.000000 154.000000"
 preserveAspectRatio="xMidYMid meet">
<metadata>
Created by potrace 1.11, written by Peter Selinger 2001-2013
</metadata>
<g transform="translate(0.000000,154.000000) scale(0.100000,-0.100000)"
fill="#000000" stroke="none">
<path d="M590 1505 c-136 -29 -262 -98 -363 -200 -106 -107 -138 -186 -134
-335 3 -102 24 -167 65 -203 l21 -19 -13 44 c-26 87 6 205 75 277 76 79 124
81 300 15 130 -48 203 -59 248 -35 20 11 21 18 17 70 -6 64 -26 126 -52 167
-18 26 -18 27 3 41 38 25 58 47 93 97 31 46 32 50 15 62 -45 33 -167 42 -275
19z m185 -64 c8 -14 -53 -56 -102 -70 -24 -6 -43 -14 -43 -17 0 -3 18 -31 39
-63 43 -62 77 -152 67 -176 -7 -20 -45 -12 -166 33 -136 50 -178 59 -234 51
-45 -7 -146 -63 -146 -81 0 -5 -5 -8 -11 -8 -21 0 38 86 106 154 80 80 162
129 275 163 77 23 204 31 215 14z"/>
<path d="M1022 1320 c-60 -37 -77 -123 -36 -186 17 -26 72 -54 104 -54 37 0
91 32 111 64 70 114 -65 246 -179 176z m86 -48 c32 -40 -3 -99 -53 -86 -36 9
-53 46 -35 79 20 37 61 40 88 7z"/>
<path d="M39 953 c-13 -33 -17 -186 -6 -260 10 -71 32 -134 79 -225 61 -119
147 -205 291 -292 21 -13 26 -21 18 -30 -6 -7 -18 -33 -26 -57 -22 -61 -8 -69
101 -65 70 2 93 8 150 36 50 24 85 34 130 37 307 17 570 235 649 538 26 100
24 106 -52 151 -131 79 -252 114 -389 115 -149 0 -285 -46 -489 -167 -128 -76
-154 -86 -218 -86 -82 0 -137 35 -179 115 -21 43 -47 160 -41 195 4 30 -5 28
-18 -5z m1076 -133 c61 -13 145 -45 205 -80 42 -25 45 -29 42 -65 -10 -127
-129 -306 -266 -400 -65 -45 -183 -93 -250 -102 -75 -11 -205 -7 -256 7 l-44
12 24 19 c14 10 40 26 58 35 37 17 45 31 40 68 l-3 26 -50 -24 c-27 -12 -72
-40 -98 -60 l-48 -37 -49 27 c-61 33 -135 95 -184 154 -38 46 -123 206 -114
215 2 3 20 -3 39 -12 39 -20 120 -28 182 -19 28 4 89 33 168 79 147 86 217
120 296 143 107 31 197 35 308 14z m-545 -707 c19 -7 -22 -21 -67 -22 -37 -1
-38 1 -21 28 11 19 21 18 88 -6z"/>
<path d="M1080 763 c-41 -15 -51 -62 -20 -93 26 -26 46 -25 75 4 27 27 24 58
-8 81 -23 16 -24 16 -47 8z"/>
<path d="M838 747 c-32 -8 -38 -14 -45 -45 -4 -21 -7 -70 -7 -110 1 -60 7 -84
32 -135 32 -64 92 -133 137 -157 22 -12 30 -11 61 4 l37 17 -49 31 c-101 64
-152 152 -152 263 0 33 7 77 16 98 8 21 13 39 11 41 -2 1 -21 -2 -41 -7z"/>
<path d="M1072 972 c-10 -6 3 -11 39 -16 72 -10 177 -48 266 -97 59 -32 72
-36 64 -20 -17 30 -92 88 -146 112 -53 23 -200 37 -223 21z"/>
<path d="M1500 680 c-3 -37 -4 -40 -24 -105 -22 -73 -78 -181 -122 -238 -18
-23 -31 -43 -29 -46 9 -9 95 67 125 110 54 79 80 194 61 269 -8 30 -9 32 -11
10z"/>
</g>
</svg>
