<?xml version="1.0" standalone="no"?>
<!DOCTYPE svg PUBLIC "-//W3C//DTD SVG 20010904//EN"
 "http://www.w3.org/TR/2001/REC-SVG-20010904/DTD/svg10.dtd">
<svg version="1.0" xmlns="http://www.w3.org/2000/svg"
 width="1200.000000pt" height="1200.000000pt" viewBox="0 0 1200.000000 1200.000000"
 preserveAspectRatio="xMidYMid meet">
<metadata>
Created by potrace 1.11, written by Peter Selinger 2001-2013
</metadata>
<g transform="translate(0.000000,1200.000000) scale(0.100000,-0.100000)"
fill="#000000" stroke="none">
<path d="M5855 8219 c-11 -4 -35 -8 -53 -8 -18 -1 -40 -5 -50 -10 -9 -5 -48
-17 -87 -27 -38 -9 -72 -20 -75 -24 -3 -3 -25 -17 -50 -31 -25 -13 -51 -30
-58 -37 -8 -7 -29 -24 -49 -39 -26 -20 -33 -32 -29 -48 5 -18 -7 -33 -57 -76
-34 -29 -74 -66 -90 -81 -31 -32 -97 -132 -97 -148 0 -5 -4 -10 -9 -10 -11 0
-57 -98 -82 -175 -7 -22 -16 -44 -20 -50 -20 -30 -29 -126 -19 -206 5 -46 10
-116 10 -156 0 -66 11 -136 30 -188 4 -11 13 -38 19 -60 13 -43 27 -78 43
-109 8 -15 6 -23 -8 -33 -10 -7 -22 -13 -27 -13 -23 0 -36 -38 -37 -102 0 -64
14 -118 31 -118 4 0 10 -8 13 -18 8 -25 81 -62 123 -62 34 0 63 -18 63 -39 0
-40 119 -192 191 -244 39 -28 141 -87 150 -87 5 0 9 -4 9 -10 0 -5 7 -10 15
-10 8 0 15 -4 15 -10 0 -5 7 -10 15 -10 8 0 24 -4 35 -10 11 -5 29 -14 40 -20
11 -5 26 -10 33 -10 40 0 28 -25 -56 -112 -48 -51 -100 -113 -115 -138 -14
-25 -32 -50 -40 -55 -8 -6 -12 -23 -10 -39 3 -28 4 -27 41 27 21 31 49 68 63
84 13 15 24 33 24 40 0 6 9 15 20 18 11 3 20 10 20 14 0 5 28 36 61 71 59 60
63 62 103 56 144 -19 156 -23 156 -55 0 -27 48 -70 86 -77 65 -12 126 1 151
33 13 15 23 35 23 44 0 10 15 20 39 27 75 23 98 15 174 -57 27 -25 53 -47 58
-49 5 -2 9 -10 9 -18 0 -8 3 -14 8 -14 18 0 168 -269 155 -279 -4 -3 -14 -18
-22 -33 -8 -16 -22 -28 -31 -28 -17 0 -40 -18 -40 -32 0 -4 12 -8 28 -8 30 0
52 -34 52 -81 0 -15 4 -30 9 -33 9 -6 11 -18 31 -156 5 -36 14 -94 21 -130 24
-122 13 -250 -20 -250 -11 0 -22 7 -25 16 -4 11 -13 14 -30 10 -23 -6 -24 -3
-30 47 -3 28 -10 88 -16 132 -5 44 -17 152 -25 240 -8 88 -19 187 -25 220 -6
33 -14 81 -17 108 -2 26 -9 47 -14 47 -5 0 -9 11 -9 25 0 14 -4 25 -10 25 -6
0 -10 -26 -10 -59 0 -33 5 -63 10 -66 6 -3 10 -33 10 -65 0 -32 5 -62 10 -65
6 -3 10 -27 10 -53 0 -49 26 -278 36 -323 5 -23 1 -29 -26 -43 -18 -8 -62 -23
-99 -31 -36 -9 -82 -20 -101 -25 -19 -5 -56 -14 -81 -20 -28 -7 -91 -10 -160
-7 -113 5 -141 10 -249 42 -30 9 -66 19 -80 22 -13 4 -33 14 -44 25 -11 10
-26 18 -33 18 -7 0 -13 5 -13 10 0 6 -5 10 -11 10 -7 0 -20 9 -30 21 -15 17
-17 33 -13 92 3 40 9 88 14 107 5 19 11 58 14 85 11 116 53 310 77 357 11 22
12 48 1 48 -14 0 -39 -53 -52 -110 -18 -76 -33 -110 -48 -110 -18 0 -90 38
-128 66 -36 28 -44 29 -44 9 0 -9 14 -24 31 -33 25 -14 29 -21 25 -44 -4 -16
-9 -43 -12 -60 -4 -18 -10 -37 -14 -43 -3 -5 -12 -37 -19 -70 -7 -33 -17 -69
-21 -80 -55 -138 -76 -314 -45 -370 9 -16 29 -40 45 -52 l28 -23 25 20 c14 11
34 20 45 20 37 0 46 25 32 86 -12 48 -11 57 2 70 12 12 20 13 39 4 23 -10 26
-20 37 -113 7 -56 12 -124 12 -152 0 -55 30 -246 55 -352 53 -225 53 -223 16
-262 -33 -35 -39 -62 -18 -79 7 -6 55 -14 107 -17 116 -9 127 -2 110 67 -9 36
-8 59 5 119 9 41 25 139 35 219 19 141 30 191 53 238 10 21 16 23 91 20 l81
-3 8 -40 c4 -22 12 -65 17 -95 5 -30 16 -86 24 -125 9 -38 21 -129 28 -202 6
-73 15 -133 20 -133 5 0 6 -11 2 -24 -5 -22 -1 -26 35 -36 86 -23 151 -13 151
23 0 24 -22 93 -33 103 -10 10 -9 44 1 44 7 0 19 38 42 130 18 75 30 158 30
209 0 29 4 60 9 69 9 18 17 82 27 221 6 81 7 83 20 52 7 -17 11 -38 8 -46 -4
-8 -3 -31 0 -50 6 -30 11 -35 36 -35 16 0 32 -4 35 -10 7 -12 55 -13 55 -2 0
5 11 22 25 38 21 24 25 39 25 91 0 34 -4 64 -9 67 -4 3 -11 45 -15 93 -8 92
-27 220 -45 288 -33 131 -33 135 -17 160 9 13 16 35 16 49 0 23 -18 74 -30 86
-12 11 -30 51 -30 65 0 8 -4 15 -9 15 -4 0 -22 27 -40 59 -30 57 -161 201
-182 201 -27 0 8 21 59 36 73 21 143 54 163 76 9 10 19 18 23 18 4 0 37 24 74
54 67 53 87 76 153 170 27 39 42 52 65 54 37 3 73 21 101 49 12 12 30 27 40
35 10 7 25 26 33 41 18 35 19 139 2 145 -7 2 -12 10 -12 18 0 8 -8 14 -19 14
-23 0 -49 29 -35 38 6 4 20 32 31 62 51 136 61 207 69 501 6 253 6 256 -17
305 -38 81 -39 85 -29 79 19 -12 22 25 6 59 -18 37 -102 146 -123 159 -8 5
-55 49 -105 99 -58 56 -111 99 -144 115 -28 13 -61 33 -72 44 -12 10 -28 19
-37 19 -8 0 -15 5 -15 10 0 6 -5 10 -11 10 -6 0 -20 11 -31 25 -21 27 -87 65
-113 65 -8 0 -15 4 -15 9 0 5 -17 12 -37 16 -55 10 -624 14 -648 4z m868 -808
c4 -1 7 -8 7 -16 0 -8 4 -15 8 -15 5 0 14 -16 22 -35 16 -41 46 -55 64 -30 11
15 15 16 34 4 12 -8 22 -19 22 -26 0 -7 6 -13 13 -13 46 0 75 -96 86 -283 5
-86 13 -153 20 -160 6 -6 11 -19 11 -29 0 -10 4 -26 9 -36 30 -60 43 -202 22
-254 -5 -13 -14 -43 -21 -68 -20 -71 -72 -188 -100 -224 -47 -59 -130 -134
-200 -181 -25 -16 -46 -33 -48 -37 -2 -5 -10 -8 -18 -8 -8 0 -14 -4 -14 -10 0
-5 -6 -10 -13 -10 -8 0 -28 -7 -45 -15 -74 -37 -311 -66 -477 -58 -128 6 -268
42 -363 95 -18 10 -39 18 -47 18 -8 0 -15 5 -15 10 0 6 -9 10 -20 10 -11 0
-20 3 -20 8 0 4 -20 15 -44 25 -24 10 -52 27 -62 38 -9 10 -21 19 -26 19 -9 0
-114 104 -148 146 -9 11 -29 50 -44 87 -16 37 -33 67 -38 67 -4 0 -8 15 -8 34
0 19 -4 38 -10 41 -15 9 -12 84 4 100 16 16 14 75 -5 161 -16 73 -3 147 42
237 18 36 31 82 35 123 4 35 11 67 15 70 5 3 9 14 9 25 0 10 4 27 9 37 5 9 14
29 20 45 33 80 23 75 124 69 51 -2 97 -9 104 -14 7 -6 19 -5 32 1 26 15 28 14
34 -10 8 -31 31 -18 35 20 4 39 22 37 41 -6 17 -38 54 -61 73 -45 8 6 104 13
233 17 246 7 372 12 397 14 9 0 25 15 35 31 20 34 31 38 40 13 11 -29 53 -65
69 -59 8 3 19 17 26 31 6 14 15 25 20 25 4 0 8 6 8 13 0 11 15 13 63 8z
m-1525 -761 c29 -18 32 -25 33 -67 0 -27 2 -55 4 -63 2 -8 7 -32 11 -52 6 -37
6 -38 -25 -38 -78 0 -124 60 -124 161 0 82 32 101 101 59z m1979 -92 c39 -36
32 -88 -19 -143 -41 -44 -122 -94 -134 -83 -3 3 6 39 20 80 14 41 26 89 26
107 0 17 6 38 13 46 18 22 68 18 94 -7z m-1021 -679 c4 -7 28 -9 64 -6 73 6
89 -2 64 -33 -32 -39 -71 -50 -121 -35 -73 22 -96 56 -50 75 30 12 35 12 43
-1z m-440 -534 c-3 -27 -10 -81 -15 -120 -5 -38 -13 -96 -17 -127 -3 -32 -10
-58 -14 -58 -16 0 -35 -89 -33 -154 2 -63 0 -68 -18 -63 -13 3 -26 -4 -40 -21
-18 -24 -22 -25 -30 -10 -5 9 -16 24 -24 32 -8 8 -15 21 -15 29 0 7 -3 17 -7
20 -11 12 -13 66 -3 72 6 3 10 19 10 35 0 16 5 32 10 35 6 3 10 19 10 35 0 16
5 32 10 35 6 3 10 19 10 34 0 15 3 31 7 35 8 7 37 109 58 200 7 32 19 62 26
66 7 5 28 1 46 -8 34 -16 34 -17 29 -67z m248 -1261 c11 -4 16 -19 16 -45 l0
-39 -52 1 c-29 1 -63 4 -75 7 -18 6 -20 10 -10 23 11 15 80 55 99 58 3 1 13
-2 22 -5z m566 -43 c21 -51 -3 -63 -80 -39 -48 16 -51 33 -7 52 52 23 73 20
87 -13z"/>
<path d="M5705 7113 c-11 -2 -28 -15 -38 -28 -17 -23 -17 -25 1 -34 13 -7 27
-6 45 4 15 7 39 15 54 17 20 2 28 9 28 23 0 16 -7 20 -35 21 -19 1 -44 0 -55
-3z"/>
<path d="M6507 7073 c-13 -15 -13 -20 -1 -30 7 -7 27 -13 44 -13 17 0 39 -5
49 -12 10 -6 26 -8 35 -5 38 15 -32 77 -87 77 -13 0 -31 -8 -40 -17z"/>
<path d="M5700 6793 c-67 -28 -81 -143 -25 -200 20 -19 61 -26 84 -14 52 28
69 135 28 183 -23 28 -61 41 -87 31z"/>
<path d="M6508 6729 c-10 -10 -18 -26 -18 -35 0 -8 -5 -25 -11 -36 -8 -15 -8
-32 1 -65 16 -56 50 -77 102 -63 43 12 58 42 58 113 0 40 -5 58 -24 80 -28 33
-81 36 -108 6z"/>
<path d="M6240 6250 c0 -16 -70 -23 -112 -11 -44 14 -63 6 -35 -13 31 -24 107
-28 146 -9 41 21 52 43 22 43 -12 0 -21 -4 -21 -10z"/>
</g>
</svg>
